<?xml version="1.0" encoding="utf-8" standalone="no"?>
<!DOCTYPE svg PUBLIC "-//W3C//DTD SVG 1.1//EN"
  "http://www.w3.org/Graphics/SVG/1.1/DTD/svg11.dtd">
<!-- Created with matplotlib (https://matplotlib.org/) -->
<svg height="277.314375pt" version="1.1" viewBox="0 0 388.965625 277.314375" width="388.965625pt" xmlns="http://www.w3.org/2000/svg" xmlns:xlink="http://www.w3.org/1999/xlink">
 <defs>
  <style type="text/css">
*{stroke-linecap:butt;stroke-linejoin:round;}
  </style>
 </defs>
 <g id="figure_1">
  <g id="patch_1">
   <path d="M 0 277.314375 
L 388.965625 277.314375 
L 388.965625 0 
L 0 0 
z
" style="fill:none;"/>
  </g>
  <g id="axes_1">
   <g id="patch_2">
    <path d="M 46.965625 239.758125 
L 381.765625 239.758125 
L 381.765625 22.318125 
L 46.965625 22.318125 
z
" style="fill:#ffffff;"/>
   </g>
   <g id="matplotlib.axis_1">
    <g id="xtick_1">
     <g id="line2d_1">
      <defs>
       <path d="M 0 0 
L 0 3.5 
" id="m8ea43486bf" style="stroke:#000000;stroke-width:0.8;"/>
      </defs>
      <g>
       <use style="stroke:#000000;stroke-width:0.8;" x="62.183807" xlink:href="#m8ea43486bf" y="239.758125"/>
      </g>
     </g>
     <g id="text_1">
      <!-- 0 -->
      <defs>
       <path d="M 31.78125 66.40625 
Q 24.171875 66.40625 20.328125 58.90625 
Q 16.5 51.421875 16.5 36.375 
Q 16.5 21.390625 20.328125 13.890625 
Q 24.171875 6.390625 31.78125 6.390625 
Q 39.453125 6.390625 43.28125 13.890625 
Q 47.125 21.390625 47.125 36.375 
Q 47.125 51.421875 43.28125 58.90625 
Q 39.453125 66.40625 31.78125 66.40625 
z
M 31.78125 74.21875 
Q 44.046875 74.21875 50.515625 64.515625 
Q 56.984375 54.828125 56.984375 36.375 
Q 56.984375 17.96875 50.515625 8.265625 
Q 44.046875 -1.421875 31.78125 -1.421875 
Q 19.53125 -1.421875 13.0625 8.265625 
Q 6.59375 17.96875 6.59375 36.375 
Q 6.59375 54.828125 13.0625 64.515625 
Q 19.53125 74.21875 31.78125 74.21875 
z
" id="DejaVuSans-48"/>
      </defs>
      <g transform="translate(59.002557 254.356562)scale(0.1 -0.1)">
       <use xlink:href="#DejaVuSans-48"/>
      </g>
     </g>
    </g>
    <g id="xtick_2">
     <g id="line2d_2">
      <g>
       <use style="stroke:#000000;stroke-width:0.8;" x="123.301003" xlink:href="#m8ea43486bf" y="239.758125"/>
      </g>
     </g>
     <g id="text_2">
      <!-- 50 -->
      <defs>
       <path d="M 10.796875 72.90625 
L 49.515625 72.90625 
L 49.515625 64.59375 
L 19.828125 64.59375 
L 19.828125 46.734375 
Q 21.96875 47.46875 24.109375 47.828125 
Q 26.265625 48.1875 28.421875 48.1875 
Q 40.625 48.1875 47.75 41.5 
Q 54.890625 34.8125 54.890625 23.390625 
Q 54.890625 11.625 47.5625 5.09375 
Q 40.234375 -1.421875 26.90625 -1.421875 
Q 22.3125 -1.421875 17.546875 -0.640625 
Q 12.796875 0.140625 7.71875 1.703125 
L 7.71875 11.625 
Q 12.109375 9.234375 16.796875 8.0625 
Q 21.484375 6.890625 26.703125 6.890625 
Q 35.15625 6.890625 40.078125 11.328125 
Q 45.015625 15.765625 45.015625 23.390625 
Q 45.015625 31 40.078125 35.4375 
Q 35.15625 39.890625 26.703125 39.890625 
Q 22.75 39.890625 18.8125 39.015625 
Q 14.890625 38.140625 10.796875 36.28125 
z
" id="DejaVuSans-53"/>
      </defs>
      <g transform="translate(116.938503 254.356562)scale(0.1 -0.1)">
       <use xlink:href="#DejaVuSans-53"/>
       <use x="63.623047" xlink:href="#DejaVuSans-48"/>
      </g>
     </g>
    </g>
    <g id="xtick_3">
     <g id="line2d_3">
      <g>
       <use style="stroke:#000000;stroke-width:0.8;" x="184.418199" xlink:href="#m8ea43486bf" y="239.758125"/>
      </g>
     </g>
     <g id="text_3">
      <!-- 100 -->
      <defs>
       <path d="M 12.40625 8.296875 
L 28.515625 8.296875 
L 28.515625 63.921875 
L 10.984375 60.40625 
L 10.984375 69.390625 
L 28.421875 72.90625 
L 38.28125 72.90625 
L 38.28125 8.296875 
L 54.390625 8.296875 
L 54.390625 0 
L 12.40625 0 
z
" id="DejaVuSans-49"/>
      </defs>
      <g transform="translate(174.874449 254.356562)scale(0.1 -0.1)">
       <use xlink:href="#DejaVuSans-49"/>
       <use x="63.623047" xlink:href="#DejaVuSans-48"/>
       <use x="127.246094" xlink:href="#DejaVuSans-48"/>
      </g>
     </g>
    </g>
    <g id="xtick_4">
     <g id="line2d_4">
      <g>
       <use style="stroke:#000000;stroke-width:0.8;" x="245.535395" xlink:href="#m8ea43486bf" y="239.758125"/>
      </g>
     </g>
     <g id="text_4">
      <!-- 150 -->
      <g transform="translate(235.991645 254.356562)scale(0.1 -0.1)">
       <use xlink:href="#DejaVuSans-49"/>
       <use x="63.623047" xlink:href="#DejaVuSans-53"/>
       <use x="127.246094" xlink:href="#DejaVuSans-48"/>
      </g>
     </g>
    </g>
    <g id="xtick_5">
     <g id="line2d_5">
      <g>
       <use style="stroke:#000000;stroke-width:0.8;" x="306.652591" xlink:href="#m8ea43486bf" y="239.758125"/>
      </g>
     </g>
     <g id="text_5">
      <!-- 200 -->
      <defs>
       <path d="M 19.1875 8.296875 
L 53.609375 8.296875 
L 53.609375 0 
L 7.328125 0 
L 7.328125 8.296875 
Q 12.9375 14.109375 22.625 23.890625 
Q 32.328125 33.6875 34.8125 36.53125 
Q 39.546875 41.84375 41.421875 45.53125 
Q 43.3125 49.21875 43.3125 52.78125 
Q 43.3125 58.59375 39.234375 62.25 
Q 35.15625 65.921875 28.609375 65.921875 
Q 23.96875 65.921875 18.8125 64.3125 
Q 13.671875 62.703125 7.8125 59.421875 
L 7.8125 69.390625 
Q 13.765625 71.78125 18.9375 73 
Q 24.125 74.21875 28.421875 74.21875 
Q 39.75 74.21875 46.484375 68.546875 
Q 53.21875 62.890625 53.21875 53.421875 
Q 53.21875 48.921875 51.53125 44.890625 
Q 49.859375 40.875 45.40625 35.40625 
Q 44.1875 33.984375 37.640625 27.21875 
Q 31.109375 20.453125 19.1875 8.296875 
z
" id="DejaVuSans-50"/>
      </defs>
      <g transform="translate(297.108841 254.356562)scale(0.1 -0.1)">
       <use xlink:href="#DejaVuSans-50"/>
       <use x="63.623047" xlink:href="#DejaVuSans-48"/>
       <use x="127.246094" xlink:href="#DejaVuSans-48"/>
      </g>
     </g>
    </g>
    <g id="xtick_6">
     <g id="line2d_6">
      <g>
       <use style="stroke:#000000;stroke-width:0.8;" x="367.769787" xlink:href="#m8ea43486bf" y="239.758125"/>
      </g>
     </g>
     <g id="text_6">
      <!-- 250 -->
      <g transform="translate(358.226037 254.356562)scale(0.1 -0.1)">
       <use xlink:href="#DejaVuSans-50"/>
       <use x="63.623047" xlink:href="#DejaVuSans-53"/>
       <use x="127.246094" xlink:href="#DejaVuSans-48"/>
      </g>
     </g>
    </g>
    <g id="text_7">
     <!-- Tiempo -->
     <defs>
      <path d="M -0.296875 72.90625 
L 61.375 72.90625 
L 61.375 64.59375 
L 35.5 64.59375 
L 35.5 0 
L 25.59375 0 
L 25.59375 64.59375 
L -0.296875 64.59375 
z
" id="DejaVuSans-84"/>
      <path d="M 9.421875 54.6875 
L 18.40625 54.6875 
L 18.40625 0 
L 9.421875 0 
z
M 9.421875 75.984375 
L 18.40625 75.984375 
L 18.40625 64.59375 
L 9.421875 64.59375 
z
" id="DejaVuSans-105"/>
      <path d="M 56.203125 29.59375 
L 56.203125 25.203125 
L 14.890625 25.203125 
Q 15.484375 15.921875 20.484375 11.0625 
Q 25.484375 6.203125 34.421875 6.203125 
Q 39.59375 6.203125 44.453125 7.46875 
Q 49.3125 8.734375 54.109375 11.28125 
L 54.109375 2.78125 
Q 49.265625 0.734375 44.1875 -0.34375 
Q 39.109375 -1.421875 33.890625 -1.421875 
Q 20.796875 -1.421875 13.15625 6.1875 
Q 5.515625 13.8125 5.515625 26.8125 
Q 5.515625 40.234375 12.765625 48.109375 
Q 20.015625 56 32.328125 56 
Q 43.359375 56 49.78125 48.890625 
Q 56.203125 41.796875 56.203125 29.59375 
z
M 47.21875 32.234375 
Q 47.125 39.59375 43.09375 43.984375 
Q 39.0625 48.390625 32.421875 48.390625 
Q 24.90625 48.390625 20.390625 44.140625 
Q 15.875 39.890625 15.1875 32.171875 
z
" id="DejaVuSans-101"/>
      <path d="M 52 44.1875 
Q 55.375 50.25 60.0625 53.125 
Q 64.75 56 71.09375 56 
Q 79.640625 56 84.28125 50.015625 
Q 88.921875 44.046875 88.921875 33.015625 
L 88.921875 0 
L 79.890625 0 
L 79.890625 32.71875 
Q 79.890625 40.578125 77.09375 44.375 
Q 74.3125 48.1875 68.609375 48.1875 
Q 61.625 48.1875 57.5625 43.546875 
Q 53.515625 38.921875 53.515625 30.90625 
L 53.515625 0 
L 44.484375 0 
L 44.484375 32.71875 
Q 44.484375 40.625 41.703125 44.40625 
Q 38.921875 48.1875 33.109375 48.1875 
Q 26.21875 48.1875 22.15625 43.53125 
Q 18.109375 38.875 18.109375 30.90625 
L 18.109375 0 
L 9.078125 0 
L 9.078125 54.6875 
L 18.109375 54.6875 
L 18.109375 46.1875 
Q 21.1875 51.21875 25.484375 53.609375 
Q 29.78125 56 35.6875 56 
Q 41.65625 56 45.828125 52.96875 
Q 50 49.953125 52 44.1875 
z
" id="DejaVuSans-109"/>
      <path d="M 18.109375 8.203125 
L 18.109375 -20.796875 
L 9.078125 -20.796875 
L 9.078125 54.6875 
L 18.109375 54.6875 
L 18.109375 46.390625 
Q 20.953125 51.265625 25.265625 53.625 
Q 29.59375 56 35.59375 56 
Q 45.5625 56 51.78125 48.09375 
Q 58.015625 40.1875 58.015625 27.296875 
Q 58.015625 14.40625 51.78125 6.484375 
Q 45.5625 -1.421875 35.59375 -1.421875 
Q 29.59375 -1.421875 25.265625 0.953125 
Q 20.953125 3.328125 18.109375 8.203125 
z
M 48.6875 27.296875 
Q 48.6875 37.203125 44.609375 42.84375 
Q 40.53125 48.484375 33.40625 48.484375 
Q 26.265625 48.484375 22.1875 42.84375 
Q 18.109375 37.203125 18.109375 27.296875 
Q 18.109375 17.390625 22.1875 11.75 
Q 26.265625 6.109375 33.40625 6.109375 
Q 40.53125 6.109375 44.609375 11.75 
Q 48.6875 17.390625 48.6875 27.296875 
z
" id="DejaVuSans-112"/>
      <path d="M 30.609375 48.390625 
Q 23.390625 48.390625 19.1875 42.75 
Q 14.984375 37.109375 14.984375 27.296875 
Q 14.984375 17.484375 19.15625 11.84375 
Q 23.34375 6.203125 30.609375 6.203125 
Q 37.796875 6.203125 41.984375 11.859375 
Q 46.1875 17.53125 46.1875 27.296875 
Q 46.1875 37.015625 41.984375 42.703125 
Q 37.796875 48.390625 30.609375 48.390625 
z
M 30.609375 56 
Q 42.328125 56 49.015625 48.375 
Q 55.71875 40.765625 55.71875 27.296875 
Q 55.71875 13.875 49.015625 6.21875 
Q 42.328125 -1.421875 30.609375 -1.421875 
Q 18.84375 -1.421875 12.171875 6.21875 
Q 5.515625 13.875 5.515625 27.296875 
Q 5.515625 40.765625 12.171875 48.375 
Q 18.84375 56 30.609375 56 
z
" id="DejaVuSans-111"/>
     </defs>
     <g transform="translate(195.744531 268.034687)scale(0.1 -0.1)">
      <use xlink:href="#DejaVuSans-84"/>
      <use x="61.037109" xlink:href="#DejaVuSans-105"/>
      <use x="88.820312" xlink:href="#DejaVuSans-101"/>
      <use x="150.34375" xlink:href="#DejaVuSans-109"/>
      <use x="247.755859" xlink:href="#DejaVuSans-112"/>
      <use x="311.232422" xlink:href="#DejaVuSans-111"/>
     </g>
    </g>
   </g>
   <g id="matplotlib.axis_2">
    <g id="ytick_1">
     <g id="line2d_7">
      <defs>
       <path d="M 0 0 
L -3.5 0 
" id="m4b45060fa7" style="stroke:#000000;stroke-width:0.8;"/>
      </defs>
      <g>
       <use style="stroke:#000000;stroke-width:0.8;" x="46.965625" xlink:href="#m4b45060fa7" y="229.874489"/>
      </g>
     </g>
     <g id="text_8">
      <!-- 80 -->
      <defs>
       <path d="M 31.78125 34.625 
Q 24.75 34.625 20.71875 30.859375 
Q 16.703125 27.09375 16.703125 20.515625 
Q 16.703125 13.921875 20.71875 10.15625 
Q 24.75 6.390625 31.78125 6.390625 
Q 38.8125 6.390625 42.859375 10.171875 
Q 46.921875 13.96875 46.921875 20.515625 
Q 46.921875 27.09375 42.890625 30.859375 
Q 38.875 34.625 31.78125 34.625 
z
M 21.921875 38.8125 
Q 15.578125 40.375 12.03125 44.71875 
Q 8.5 49.078125 8.5 55.328125 
Q 8.5 64.0625 14.71875 69.140625 
Q 20.953125 74.21875 31.78125 74.21875 
Q 42.671875 74.21875 48.875 69.140625 
Q 55.078125 64.0625 55.078125 55.328125 
Q 55.078125 49.078125 51.53125 44.71875 
Q 48 40.375 41.703125 38.8125 
Q 48.828125 37.15625 52.796875 32.3125 
Q 56.78125 27.484375 56.78125 20.515625 
Q 56.78125 9.90625 50.3125 4.234375 
Q 43.84375 -1.421875 31.78125 -1.421875 
Q 19.734375 -1.421875 13.25 4.234375 
Q 6.78125 9.90625 6.78125 20.515625 
Q 6.78125 27.484375 10.78125 32.3125 
Q 14.796875 37.15625 21.921875 38.8125 
z
M 18.3125 54.390625 
Q 18.3125 48.734375 21.84375 45.5625 
Q 25.390625 42.390625 31.78125 42.390625 
Q 38.140625 42.390625 41.71875 45.5625 
Q 45.3125 48.734375 45.3125 54.390625 
Q 45.3125 60.0625 41.71875 63.234375 
Q 38.140625 66.40625 31.78125 66.40625 
Q 25.390625 66.40625 21.84375 63.234375 
Q 18.3125 60.0625 18.3125 54.390625 
z
" id="DejaVuSans-56"/>
      </defs>
      <g transform="translate(27.240625 233.673707)scale(0.1 -0.1)">
       <use xlink:href="#DejaVuSans-56"/>
       <use x="63.623047" xlink:href="#DejaVuSans-48"/>
      </g>
     </g>
    </g>
    <g id="ytick_2">
     <g id="line2d_8">
      <g>
       <use style="stroke:#000000;stroke-width:0.8;" x="46.965625" xlink:href="#m4b45060fa7" y="201.635521"/>
      </g>
     </g>
     <g id="text_9">
      <!-- 100 -->
      <g transform="translate(20.878125 205.43474)scale(0.1 -0.1)">
       <use xlink:href="#DejaVuSans-49"/>
       <use x="63.623047" xlink:href="#DejaVuSans-48"/>
       <use x="127.246094" xlink:href="#DejaVuSans-48"/>
      </g>
     </g>
    </g>
    <g id="ytick_3">
     <g id="line2d_9">
      <g>
       <use style="stroke:#000000;stroke-width:0.8;" x="46.965625" xlink:href="#m4b45060fa7" y="173.396554"/>
      </g>
     </g>
     <g id="text_10">
      <!-- 120 -->
      <g transform="translate(20.878125 177.195773)scale(0.1 -0.1)">
       <use xlink:href="#DejaVuSans-49"/>
       <use x="63.623047" xlink:href="#DejaVuSans-50"/>
       <use x="127.246094" xlink:href="#DejaVuSans-48"/>
      </g>
     </g>
    </g>
    <g id="ytick_4">
     <g id="line2d_10">
      <g>
       <use style="stroke:#000000;stroke-width:0.8;" x="46.965625" xlink:href="#m4b45060fa7" y="145.157586"/>
      </g>
     </g>
     <g id="text_11">
      <!-- 140 -->
      <defs>
       <path d="M 37.796875 64.3125 
L 12.890625 25.390625 
L 37.796875 25.390625 
z
M 35.203125 72.90625 
L 47.609375 72.90625 
L 47.609375 25.390625 
L 58.015625 25.390625 
L 58.015625 17.1875 
L 47.609375 17.1875 
L 47.609375 0 
L 37.796875 0 
L 37.796875 17.1875 
L 4.890625 17.1875 
L 4.890625 26.703125 
z
" id="DejaVuSans-52"/>
      </defs>
      <g transform="translate(20.878125 148.956805)scale(0.1 -0.1)">
       <use xlink:href="#DejaVuSans-49"/>
       <use x="63.623047" xlink:href="#DejaVuSans-52"/>
       <use x="127.246094" xlink:href="#DejaVuSans-48"/>
      </g>
     </g>
    </g>
    <g id="ytick_5">
     <g id="line2d_11">
      <g>
       <use style="stroke:#000000;stroke-width:0.8;" x="46.965625" xlink:href="#m4b45060fa7" y="116.918619"/>
      </g>
     </g>
     <g id="text_12">
      <!-- 160 -->
      <defs>
       <path d="M 33.015625 40.375 
Q 26.375 40.375 22.484375 35.828125 
Q 18.609375 31.296875 18.609375 23.390625 
Q 18.609375 15.53125 22.484375 10.953125 
Q 26.375 6.390625 33.015625 6.390625 
Q 39.65625 6.390625 43.53125 10.953125 
Q 47.40625 15.53125 47.40625 23.390625 
Q 47.40625 31.296875 43.53125 35.828125 
Q 39.65625 40.375 33.015625 40.375 
z
M 52.59375 71.296875 
L 52.59375 62.3125 
Q 48.875 64.0625 45.09375 64.984375 
Q 41.3125 65.921875 37.59375 65.921875 
Q 27.828125 65.921875 22.671875 59.328125 
Q 17.53125 52.734375 16.796875 39.40625 
Q 19.671875 43.65625 24.015625 45.921875 
Q 28.375 48.1875 33.59375 48.1875 
Q 44.578125 48.1875 50.953125 41.515625 
Q 57.328125 34.859375 57.328125 23.390625 
Q 57.328125 12.15625 50.6875 5.359375 
Q 44.046875 -1.421875 33.015625 -1.421875 
Q 20.359375 -1.421875 13.671875 8.265625 
Q 6.984375 17.96875 6.984375 36.375 
Q 6.984375 53.65625 15.1875 63.9375 
Q 23.390625 74.21875 37.203125 74.21875 
Q 40.921875 74.21875 44.703125 73.484375 
Q 48.484375 72.75 52.59375 71.296875 
z
" id="DejaVuSans-54"/>
      </defs>
      <g transform="translate(20.878125 120.717838)scale(0.1 -0.1)">
       <use xlink:href="#DejaVuSans-49"/>
       <use x="63.623047" xlink:href="#DejaVuSans-54"/>
       <use x="127.246094" xlink:href="#DejaVuSans-48"/>
      </g>
     </g>
    </g>
    <g id="ytick_6">
     <g id="line2d_12">
      <g>
       <use style="stroke:#000000;stroke-width:0.8;" x="46.965625" xlink:href="#m4b45060fa7" y="88.679651"/>
      </g>
     </g>
     <g id="text_13">
      <!-- 180 -->
      <g transform="translate(20.878125 92.47887)scale(0.1 -0.1)">
       <use xlink:href="#DejaVuSans-49"/>
       <use x="63.623047" xlink:href="#DejaVuSans-56"/>
       <use x="127.246094" xlink:href="#DejaVuSans-48"/>
      </g>
     </g>
    </g>
    <g id="ytick_7">
     <g id="line2d_13">
      <g>
       <use style="stroke:#000000;stroke-width:0.8;" x="46.965625" xlink:href="#m4b45060fa7" y="60.440684"/>
      </g>
     </g>
     <g id="text_14">
      <!-- 200 -->
      <g transform="translate(20.878125 64.239903)scale(0.1 -0.1)">
       <use xlink:href="#DejaVuSans-50"/>
       <use x="63.623047" xlink:href="#DejaVuSans-48"/>
       <use x="127.246094" xlink:href="#DejaVuSans-48"/>
      </g>
     </g>
    </g>
    <g id="ytick_8">
     <g id="line2d_14">
      <g>
       <use style="stroke:#000000;stroke-width:0.8;" x="46.965625" xlink:href="#m4b45060fa7" y="32.201717"/>
      </g>
     </g>
     <g id="text_15">
      <!-- 220 -->
      <g transform="translate(20.878125 36.000935)scale(0.1 -0.1)">
       <use xlink:href="#DejaVuSans-50"/>
       <use x="63.623047" xlink:href="#DejaVuSans-50"/>
       <use x="127.246094" xlink:href="#DejaVuSans-48"/>
      </g>
     </g>
    </g>
    <g id="text_16">
     <!-- Característica de red -->
     <defs>
      <path d="M 64.40625 67.28125 
L 64.40625 56.890625 
Q 59.421875 61.53125 53.78125 63.8125 
Q 48.140625 66.109375 41.796875 66.109375 
Q 29.296875 66.109375 22.65625 58.46875 
Q 16.015625 50.828125 16.015625 36.375 
Q 16.015625 21.96875 22.65625 14.328125 
Q 29.296875 6.6875 41.796875 6.6875 
Q 48.140625 6.6875 53.78125 8.984375 
Q 59.421875 11.28125 64.40625 15.921875 
L 64.40625 5.609375 
Q 59.234375 2.09375 53.4375 0.328125 
Q 47.65625 -1.421875 41.21875 -1.421875 
Q 24.65625 -1.421875 15.125 8.703125 
Q 5.609375 18.84375 5.609375 36.375 
Q 5.609375 53.953125 15.125 64.078125 
Q 24.65625 74.21875 41.21875 74.21875 
Q 47.75 74.21875 53.53125 72.484375 
Q 59.328125 70.75 64.40625 67.28125 
z
" id="DejaVuSans-67"/>
      <path d="M 34.28125 27.484375 
Q 23.390625 27.484375 19.1875 25 
Q 14.984375 22.515625 14.984375 16.5 
Q 14.984375 11.71875 18.140625 8.90625 
Q 21.296875 6.109375 26.703125 6.109375 
Q 34.1875 6.109375 38.703125 11.40625 
Q 43.21875 16.703125 43.21875 25.484375 
L 43.21875 27.484375 
z
M 52.203125 31.203125 
L 52.203125 0 
L 43.21875 0 
L 43.21875 8.296875 
Q 40.140625 3.328125 35.546875 0.953125 
Q 30.953125 -1.421875 24.3125 -1.421875 
Q 15.921875 -1.421875 10.953125 3.296875 
Q 6 8.015625 6 15.921875 
Q 6 25.140625 12.171875 29.828125 
Q 18.359375 34.515625 30.609375 34.515625 
L 43.21875 34.515625 
L 43.21875 35.40625 
Q 43.21875 41.609375 39.140625 45 
Q 35.0625 48.390625 27.6875 48.390625 
Q 23 48.390625 18.546875 47.265625 
Q 14.109375 46.140625 10.015625 43.890625 
L 10.015625 52.203125 
Q 14.9375 54.109375 19.578125 55.046875 
Q 24.21875 56 28.609375 56 
Q 40.484375 56 46.34375 49.84375 
Q 52.203125 43.703125 52.203125 31.203125 
z
" id="DejaVuSans-97"/>
      <path d="M 41.109375 46.296875 
Q 39.59375 47.171875 37.8125 47.578125 
Q 36.03125 48 33.890625 48 
Q 26.265625 48 22.1875 43.046875 
Q 18.109375 38.09375 18.109375 28.8125 
L 18.109375 0 
L 9.078125 0 
L 9.078125 54.6875 
L 18.109375 54.6875 
L 18.109375 46.1875 
Q 20.953125 51.171875 25.484375 53.578125 
Q 30.03125 56 36.53125 56 
Q 37.453125 56 38.578125 55.875 
Q 39.703125 55.765625 41.0625 55.515625 
z
" id="DejaVuSans-114"/>
      <path d="M 48.78125 52.59375 
L 48.78125 44.1875 
Q 44.96875 46.296875 41.140625 47.34375 
Q 37.3125 48.390625 33.40625 48.390625 
Q 24.65625 48.390625 19.8125 42.84375 
Q 14.984375 37.3125 14.984375 27.296875 
Q 14.984375 17.28125 19.8125 11.734375 
Q 24.65625 6.203125 33.40625 6.203125 
Q 37.3125 6.203125 41.140625 7.25 
Q 44.96875 8.296875 48.78125 10.40625 
L 48.78125 2.09375 
Q 45.015625 0.34375 40.984375 -0.53125 
Q 36.96875 -1.421875 32.421875 -1.421875 
Q 20.0625 -1.421875 12.78125 6.34375 
Q 5.515625 14.109375 5.515625 27.296875 
Q 5.515625 40.671875 12.859375 48.328125 
Q 20.21875 56 33.015625 56 
Q 37.15625 56 41.109375 55.140625 
Q 45.0625 54.296875 48.78125 52.59375 
z
" id="DejaVuSans-99"/>
      <path d="M 18.3125 70.21875 
L 18.3125 54.6875 
L 36.8125 54.6875 
L 36.8125 47.703125 
L 18.3125 47.703125 
L 18.3125 18.015625 
Q 18.3125 11.328125 20.140625 9.421875 
Q 21.96875 7.515625 27.59375 7.515625 
L 36.8125 7.515625 
L 36.8125 0 
L 27.59375 0 
Q 17.1875 0 13.234375 3.875 
Q 9.28125 7.765625 9.28125 18.015625 
L 9.28125 47.703125 
L 2.6875 47.703125 
L 2.6875 54.6875 
L 9.28125 54.6875 
L 9.28125 70.21875 
z
" id="DejaVuSans-116"/>
      <path d="M 20.65625 79.984375 
L 30.375 79.984375 
L 14.46875 61.625 
L 6.984375 61.625 
z
M 9.421875 54.6875 
L 18.40625 54.6875 
L 18.40625 0 
L 9.421875 0 
z
M 13.921875 56 
z
" id="DejaVuSans-237"/>
      <path d="M 44.28125 53.078125 
L 44.28125 44.578125 
Q 40.484375 46.53125 36.375 47.5 
Q 32.28125 48.484375 27.875 48.484375 
Q 21.1875 48.484375 17.84375 46.4375 
Q 14.5 44.390625 14.5 40.28125 
Q 14.5 37.15625 16.890625 35.375 
Q 19.28125 33.59375 26.515625 31.984375 
L 29.59375 31.296875 
Q 39.15625 29.25 43.1875 25.515625 
Q 47.21875 21.78125 47.21875 15.09375 
Q 47.21875 7.46875 41.1875 3.015625 
Q 35.15625 -1.421875 24.609375 -1.421875 
Q 20.21875 -1.421875 15.453125 -0.5625 
Q 10.6875 0.296875 5.421875 2 
L 5.421875 11.28125 
Q 10.40625 8.6875 15.234375 7.390625 
Q 20.0625 6.109375 24.8125 6.109375 
Q 31.15625 6.109375 34.5625 8.28125 
Q 37.984375 10.453125 37.984375 14.40625 
Q 37.984375 18.0625 35.515625 20.015625 
Q 33.0625 21.96875 24.703125 23.78125 
L 21.578125 24.515625 
Q 13.234375 26.265625 9.515625 29.90625 
Q 5.8125 33.546875 5.8125 39.890625 
Q 5.8125 47.609375 11.28125 51.796875 
Q 16.75 56 26.8125 56 
Q 31.78125 56 36.171875 55.265625 
Q 40.578125 54.546875 44.28125 53.078125 
z
" id="DejaVuSans-115"/>
      <path id="DejaVuSans-32"/>
      <path d="M 45.40625 46.390625 
L 45.40625 75.984375 
L 54.390625 75.984375 
L 54.390625 0 
L 45.40625 0 
L 45.40625 8.203125 
Q 42.578125 3.328125 38.25 0.953125 
Q 33.9375 -1.421875 27.875 -1.421875 
Q 17.96875 -1.421875 11.734375 6.484375 
Q 5.515625 14.40625 5.515625 27.296875 
Q 5.515625 40.1875 11.734375 48.09375 
Q 17.96875 56 27.875 56 
Q 33.9375 56 38.25 53.625 
Q 42.578125 51.265625 45.40625 46.390625 
z
M 14.796875 27.296875 
Q 14.796875 17.390625 18.875 11.75 
Q 22.953125 6.109375 30.078125 6.109375 
Q 37.203125 6.109375 41.296875 11.75 
Q 45.40625 17.390625 45.40625 27.296875 
Q 45.40625 37.203125 41.296875 42.84375 
Q 37.203125 48.484375 30.078125 48.484375 
Q 22.953125 48.484375 18.875 42.84375 
Q 14.796875 37.203125 14.796875 27.296875 
z
" id="DejaVuSans-100"/>
     </defs>
     <g transform="translate(14.798438 183.444375)rotate(-90)scale(0.1 -0.1)">
      <use xlink:href="#DejaVuSans-67"/>
      <use x="69.824219" xlink:href="#DejaVuSans-97"/>
      <use x="131.103516" xlink:href="#DejaVuSans-114"/>
      <use x="172.216797" xlink:href="#DejaVuSans-97"/>
      <use x="233.496094" xlink:href="#DejaVuSans-99"/>
      <use x="288.476562" xlink:href="#DejaVuSans-116"/>
      <use x="327.685547" xlink:href="#DejaVuSans-101"/>
      <use x="389.208984" xlink:href="#DejaVuSans-114"/>
      <use x="430.322266" xlink:href="#DejaVuSans-237"/>
      <use x="458.105469" xlink:href="#DejaVuSans-115"/>
      <use x="510.205078" xlink:href="#DejaVuSans-116"/>
      <use x="549.414062" xlink:href="#DejaVuSans-105"/>
      <use x="577.197266" xlink:href="#DejaVuSans-99"/>
      <use x="632.177734" xlink:href="#DejaVuSans-97"/>
      <use x="693.457031" xlink:href="#DejaVuSans-32"/>
      <use x="725.244141" xlink:href="#DejaVuSans-100"/>
      <use x="788.720703" xlink:href="#DejaVuSans-101"/>
      <use x="850.244141" xlink:href="#DejaVuSans-32"/>
      <use x="882.03125" xlink:href="#DejaVuSans-114"/>
      <use x="923.113281" xlink:href="#DejaVuSans-101"/>
      <use x="984.636719" xlink:href="#DejaVuSans-100"/>
     </g>
    </g>
   </g>
   <g id="line2d_15">
    <path clip-path="url(#pe18518237a)" d="M 62.183807 201.635521 
L 85.408341 174.96962 
L 97.631781 161.260543 
L 108.632876 149.263466 
L 118.411627 138.952341 
L 126.968035 130.256823 
L 134.302098 123.080217 
L 141.636162 116.186325 
L 148.970225 109.599958 
L 156.304289 103.34482 
L 162.416008 98.401505 
L 168.527728 93.716221 
L 174.639448 89.30068 
L 180.751167 85.165917 
L 186.862887 81.322268 
L 192.974606 77.779339 
L 199.086326 74.545986 
L 203.975702 72.187656 
L 208.865077 70.036414 
L 213.754453 68.095703 
L 218.643829 66.368628 
L 223.533204 64.85795 
L 228.42258 63.566088 
L 233.311956 62.495107 
L 238.201331 61.646721 
L 243.090707 61.022288 
L 247.980083 60.622805 
L 252.869459 60.448913 
L 257.758834 60.500889 
L 262.64821 60.778651 
L 267.537586 61.281753 
L 272.426961 62.009392 
L 277.316337 62.960402 
L 282.205713 64.133264 
L 287.095088 65.526099 
L 291.984464 67.136681 
L 296.87384 68.962432 
L 301.763215 71.000431 
L 306.652591 73.247419 
L 311.541967 75.699801 
L 317.653686 79.048104 
L 323.765406 82.702813 
L 329.877126 86.654791 
L 335.988845 90.894162 
L 342.100565 95.410328 
L 348.212284 100.192002 
L 354.324004 105.227231 
L 361.658067 111.586438 
L 366.547443 116.007415 
L 366.547443 116.007415 
" style="fill:none;stroke:#008000;stroke-linecap:square;stroke-width:1.5;"/>
   </g>
   <g id="line2d_16">
    <path clip-path="url(#pe18518237a)" d="M 62.183807 216.663862 
L 63.406151 213.705812 
L 64.628495 214.422939 
L 65.850839 208.036279 
L 67.073183 211.457476 
L 68.295526 204.109873 
L 69.51787 205.412082 
L 70.740214 203.263428 
L 71.962558 200.105921 
L 73.184902 196.269411 
L 74.407246 199.493821 
L 75.62959 196.783466 
L 76.851934 190.538104 
L 78.074278 190.366809 
L 79.296622 191.4282 
L 80.518966 188.047882 
L 81.74131 187.594712 
L 82.963653 181.195322 
L 84.185997 184.679073 
L 85.408341 181.850147 
L 86.630685 174.509042 
L 87.853029 175.670962 
L 89.075373 174.3795 
L 90.297717 169.622488 
L 91.520061 167.55683 
L 92.742405 169.248643 
L 93.964749 167.807962 
L 95.187093 165.463255 
L 96.409437 163.407572 
L 97.631781 161.798941 
L 98.854124 157.895805 
L 100.076468 157.899957 
L 101.298812 153.835516 
L 102.521156 150.4681 
L 103.7435 151.768684 
L 104.965844 144.988975 
L 106.188188 145.142155 
L 107.410532 142.411397 
L 109.85522 141.303582 
L 111.077564 138.744428 
L 112.299908 135.75182 
L 113.522252 137.347282 
L 114.744595 133.284244 
L 115.966939 130.910312 
L 117.189283 125.716126 
L 118.411627 130.265412 
L 119.633971 127.306702 
L 120.856315 125.469148 
L 122.078659 125.21067 
L 123.301003 122.241662 
L 124.523347 118.146855 
L 125.745691 116.630053 
L 126.968035 119.150647 
L 128.190379 118.277016 
L 129.412722 115.914392 
L 130.635066 109.594982 
L 131.85741 111.545228 
L 133.079754 110.22869 
L 134.302098 110.033959 
L 135.524442 105.493604 
L 136.746786 106.125202 
L 137.96913 107.70879 
L 139.191474 103.042426 
L 140.413818 101.018291 
L 141.636162 100.233084 
L 142.858506 102.404496 
L 144.08085 101.600107 
L 145.303193 102.108406 
L 146.525537 95.162622 
L 148.970225 94.882325 
L 150.192569 97.224934 
L 151.414913 94.935893 
L 152.637257 96.805425 
L 153.859601 91.482925 
L 155.081945 91.671192 
L 156.304289 90.369771 
L 157.526633 88.472339 
L 158.748977 87.077244 
L 159.971321 91.545 
L 161.193664 88.348527 
L 162.416008 85.509329 
L 163.638352 87.422202 
L 164.860696 85.417667 
L 166.08304 88.779054 
L 167.305384 86.989027 
L 168.527728 82.205535 
L 169.750072 86.07885 
L 170.972416 87.46203 
L 172.19476 83.59398 
L 173.417104 82.172147 
L 174.639448 84.149525 
L 175.861791 82.520315 
L 177.084135 82.030843 
L 178.306479 79.261286 
L 179.528823 82.579412 
L 180.751167 82.801684 
L 181.973511 77.361407 
L 183.195855 77.582737 
L 184.418199 80.727783 
L 185.640543 82.330014 
L 186.862887 75.825071 
L 188.085231 78.597437 
L 189.307575 75.010796 
L 190.529919 78.162439 
L 191.752262 76.014245 
L 192.974606 80.685757 
L 194.19695 75.918325 
L 195.419294 78.279562 
L 196.641638 73.449935 
L 197.863982 75.474197 
L 199.086326 78.708114 
L 200.30867 76.844956 
L 201.531014 77.64234 
L 202.753358 76.240292 
L 203.975702 76.60908 
L 205.198046 74.923785 
L 207.642733 73.859512 
L 208.865077 70.677734 
L 210.087421 72.765116 
L 211.309765 73.516711 
L 212.532109 75.942228 
L 213.754453 74.87771 
L 214.976797 73.648218 
L 216.199141 69.805923 
L 217.421485 74.03425 
L 218.643829 70.752109 
L 219.866173 74.682137 
L 221.088517 74.24836 
L 222.31086 71.444406 
L 223.533204 71.079692 
L 224.755548 67.135451 
L 225.977892 70.391328 
L 227.200236 66.922595 
L 228.42258 67.497219 
L 229.644924 67.768455 
L 230.867268 69.35977 
L 232.089612 72.675085 
L 233.311956 71.118451 
L 234.5343 70.735248 
L 235.756644 71.712612 
L 236.978988 70.840086 
L 238.201331 70.34314 
L 239.423675 67.629174 
L 240.646019 69.682042 
L 241.868363 70.181587 
L 244.313051 67.036068 
L 245.535395 69.639385 
L 246.757739 66.584239 
L 247.980083 68.21419 
L 249.202427 66.123341 
L 250.424771 69.321513 
L 251.647115 67.580474 
L 252.869459 68.038874 
L 254.091802 65.133719 
L 255.314146 70.381537 
L 256.53649 70.053706 
L 257.758834 66.238846 
L 258.981178 68.877373 
L 260.203522 67.409404 
L 261.425866 68.101611 
L 262.64821 71.827099 
L 263.870554 67.91496 
L 265.092898 66.745008 
L 266.315242 69.561696 
L 267.537586 70.082127 
L 268.759929 65.592931 
L 269.982273 68.558736 
L 271.204617 69.250235 
L 272.426961 67.716536 
L 273.649305 70.279633 
L 274.871649 71.908818 
L 276.093993 70.083197 
L 277.316337 68.597622 
L 278.538681 73.074309 
L 279.761025 67.239774 
L 280.983369 70.689722 
L 282.205713 71.070037 
L 283.428057 72.108618 
L 284.6504 70.451453 
L 285.872744 70.701315 
L 287.095088 69.532403 
L 288.317432 70.125129 
L 289.539776 72.462805 
L 290.76212 70.240868 
L 291.984464 69.323661 
L 293.206808 70.997683 
L 294.429152 70.709613 
L 295.651496 72.143925 
L 296.87384 74.432406 
L 298.096184 70.71268 
L 299.318528 71.872651 
L 300.540871 73.503356 
L 301.763215 76.646396 
L 302.985559 71.881658 
L 304.207903 71.170294 
L 305.430247 75.390872 
L 306.652591 73.487138 
L 307.874935 73.765271 
L 309.097279 78.12093 
L 310.319623 77.731081 
L 311.541967 78.449799 
L 312.764311 78.522414 
L 313.986655 73.900635 
L 315.208998 79.688086 
L 316.431342 76.759647 
L 317.653686 80.342231 
L 318.87603 80.139031 
L 320.098374 76.446159 
L 322.543062 77.281576 
L 323.765406 78.723765 
L 324.98775 82.856386 
L 326.210094 79.769491 
L 327.432438 83.666339 
L 328.654782 82.474341 
L 329.877126 82.012051 
L 331.099469 79.526975 
L 332.321813 79.725603 
L 333.544157 83.789956 
L 334.766501 81.176212 
L 335.988845 85.508525 
L 337.211189 85.331368 
L 338.433533 82.031578 
L 339.655877 88.636998 
L 340.878221 89.470598 
L 342.100565 89.670712 
L 343.322909 85.050346 
L 344.545253 90.190907 
L 345.767597 85.163519 
L 346.98994 88.316962 
L 348.212284 92.266274 
L 349.434628 87.638203 
L 350.656972 89.720811 
L 351.879316 90.189648 
L 353.10166 89.905028 
L 354.324004 89.783513 
L 355.546348 94.544422 
L 356.768692 91.81739 
L 357.991036 92.485862 
L 359.21338 95.665295 
L 360.435724 99.696999 
L 361.658067 94.78488 
L 362.880411 96.751004 
L 364.102755 100.596265 
L 365.325099 100.48721 
L 366.547443 102.133703 
L 366.547443 102.133703 
" style="fill:none;stroke:#0000ff;stroke-linecap:square;stroke-width:1.5;"/>
   </g>
   <g id="line2d_17">
    <path clip-path="url(#pe18518237a)" d="M 62.183807 173.396554 
L 85.408341 146.730653 
L 97.631781 133.021576 
L 108.632876 121.024498 
L 118.411627 110.713373 
L 126.968035 102.017856 
L 134.302098 94.84125 
L 141.636162 87.947358 
L 148.970225 81.360991 
L 156.304289 75.105852 
L 162.416008 70.162537 
L 168.527728 65.477254 
L 174.639448 61.061713 
L 180.751167 56.92695 
L 186.862887 53.0833 
L 192.974606 49.540371 
L 199.086326 46.307018 
L 203.975702 43.948688 
L 208.865077 41.797447 
L 213.754453 39.856736 
L 218.643829 38.12966 
L 223.533204 36.618983 
L 228.42258 35.32712 
L 233.311956 34.25614 
L 238.201331 33.407754 
L 243.090707 32.78332 
L 247.980083 32.383838 
L 252.869459 32.209945 
L 257.758834 32.261922 
L 262.64821 32.539683 
L 267.537586 33.042786 
L 272.426961 33.770424 
L 277.316337 34.721435 
L 282.205713 35.894296 
L 287.095088 37.287132 
L 291.984464 38.897713 
L 296.87384 40.723464 
L 301.763215 42.761464 
L 306.652591 45.008452 
L 311.541967 47.460833 
L 317.653686 50.809137 
L 323.765406 54.463846 
L 329.877126 58.415824 
L 335.988845 62.655194 
L 342.100565 67.171361 
L 348.212284 71.953034 
L 354.324004 76.988264 
L 361.658067 83.34747 
L 366.547443 87.768447 
L 366.547443 87.768447 
" style="fill:none;stroke:#ff0000;stroke-dasharray:5.55,2.4;stroke-dashoffset:0;stroke-width:1.5;"/>
   </g>
   <g id="line2d_18">
    <path clip-path="url(#pe18518237a)" d="M 62.183807 229.874489 
L 85.408341 203.208588 
L 97.631781 189.499511 
L 108.632876 177.502433 
L 118.411627 167.191308 
L 126.968035 158.495791 
L 134.302098 151.319185 
L 141.636162 144.425293 
L 148.970225 137.838925 
L 156.304289 131.583787 
L 162.416008 126.640472 
L 168.527728 121.955189 
L 174.639448 117.539647 
L 180.751167 113.404885 
L 186.862887 109.561235 
L 192.974606 106.018306 
L 199.086326 102.784953 
L 203.975702 100.426623 
L 208.865077 98.275382 
L 213.754453 96.334671 
L 218.643829 94.607595 
L 223.533204 93.096918 
L 228.42258 91.805055 
L 233.311956 90.734074 
L 238.201331 89.885689 
L 243.090707 89.261255 
L 247.980083 88.861772 
L 252.869459 88.68788 
L 257.758834 88.739857 
L 262.64821 89.017618 
L 267.537586 89.520721 
L 272.426961 90.248359 
L 277.316337 91.19937 
L 282.205713 92.372231 
L 287.095088 93.765066 
L 291.984464 95.375648 
L 296.87384 97.201399 
L 301.763215 99.239399 
L 306.652591 101.486387 
L 311.541967 103.938768 
L 317.653686 107.287072 
L 323.765406 110.94178 
L 329.877126 114.893759 
L 335.988845 119.133129 
L 342.100565 123.649295 
L 348.212284 128.430969 
L 354.324004 133.466199 
L 361.658067 139.825405 
L 366.547443 144.246382 
L 366.547443 144.246382 
" style="fill:none;stroke:#ff0000;stroke-dasharray:5.55,2.4;stroke-dashoffset:0;stroke-width:1.5;"/>
   </g>
   <g id="patch_3">
    <path d="M 46.965625 239.758125 
L 46.965625 22.318125 
" style="fill:none;stroke:#000000;stroke-linecap:square;stroke-linejoin:miter;stroke-width:0.8;"/>
   </g>
   <g id="patch_4">
    <path d="M 381.765625 239.758125 
L 381.765625 22.318125 
" style="fill:none;stroke:#000000;stroke-linecap:square;stroke-linejoin:miter;stroke-width:0.8;"/>
   </g>
   <g id="patch_5">
    <path d="M 46.965625 239.758125 
L 381.765625 239.758125 
" style="fill:none;stroke:#000000;stroke-linecap:square;stroke-linejoin:miter;stroke-width:0.8;"/>
   </g>
   <g id="patch_6">
    <path d="M 46.965625 22.318125 
L 381.765625 22.318125 
" style="fill:none;stroke:#000000;stroke-linecap:square;stroke-linejoin:miter;stroke-width:0.8;"/>
   </g>
   <g id="text_17">
    <!-- Funcionamiento del clasificador -->
    <defs>
     <path d="M 9.8125 72.90625 
L 51.703125 72.90625 
L 51.703125 64.59375 
L 19.671875 64.59375 
L 19.671875 43.109375 
L 48.578125 43.109375 
L 48.578125 34.8125 
L 19.671875 34.8125 
L 19.671875 0 
L 9.8125 0 
z
" id="DejaVuSans-70"/>
     <path d="M 8.5 21.578125 
L 8.5 54.6875 
L 17.484375 54.6875 
L 17.484375 21.921875 
Q 17.484375 14.15625 20.5 10.265625 
Q 23.53125 6.390625 29.59375 6.390625 
Q 36.859375 6.390625 41.078125 11.03125 
Q 45.3125 15.671875 45.3125 23.6875 
L 45.3125 54.6875 
L 54.296875 54.6875 
L 54.296875 0 
L 45.3125 0 
L 45.3125 8.40625 
Q 42.046875 3.421875 37.71875 1 
Q 33.40625 -1.421875 27.6875 -1.421875 
Q 18.265625 -1.421875 13.375 4.4375 
Q 8.5 10.296875 8.5 21.578125 
z
M 31.109375 56 
z
" id="DejaVuSans-117"/>
     <path d="M 54.890625 33.015625 
L 54.890625 0 
L 45.90625 0 
L 45.90625 32.71875 
Q 45.90625 40.484375 42.875 44.328125 
Q 39.84375 48.1875 33.796875 48.1875 
Q 26.515625 48.1875 22.3125 43.546875 
Q 18.109375 38.921875 18.109375 30.90625 
L 18.109375 0 
L 9.078125 0 
L 9.078125 54.6875 
L 18.109375 54.6875 
L 18.109375 46.1875 
Q 21.34375 51.125 25.703125 53.5625 
Q 30.078125 56 35.796875 56 
Q 45.21875 56 50.046875 50.171875 
Q 54.890625 44.34375 54.890625 33.015625 
z
" id="DejaVuSans-110"/>
     <path d="M 9.421875 75.984375 
L 18.40625 75.984375 
L 18.40625 0 
L 9.421875 0 
z
" id="DejaVuSans-108"/>
     <path d="M 37.109375 75.984375 
L 37.109375 68.5 
L 28.515625 68.5 
Q 23.6875 68.5 21.796875 66.546875 
Q 19.921875 64.59375 19.921875 59.515625 
L 19.921875 54.6875 
L 34.71875 54.6875 
L 34.71875 47.703125 
L 19.921875 47.703125 
L 19.921875 0 
L 10.890625 0 
L 10.890625 47.703125 
L 2.296875 47.703125 
L 2.296875 54.6875 
L 10.890625 54.6875 
L 10.890625 58.5 
Q 10.890625 67.625 15.140625 71.796875 
Q 19.390625 75.984375 28.609375 75.984375 
z
" id="DejaVuSans-102"/>
    </defs>
    <g transform="translate(119.05 16.318125)scale(0.12 -0.12)">
     <use xlink:href="#DejaVuSans-70"/>
     <use x="57.441406" xlink:href="#DejaVuSans-117"/>
     <use x="120.820312" xlink:href="#DejaVuSans-110"/>
     <use x="184.199219" xlink:href="#DejaVuSans-99"/>
     <use x="239.179688" xlink:href="#DejaVuSans-105"/>
     <use x="266.962891" xlink:href="#DejaVuSans-111"/>
     <use x="328.144531" xlink:href="#DejaVuSans-110"/>
     <use x="391.523438" xlink:href="#DejaVuSans-97"/>
     <use x="452.802734" xlink:href="#DejaVuSans-109"/>
     <use x="550.214844" xlink:href="#DejaVuSans-105"/>
     <use x="577.998047" xlink:href="#DejaVuSans-101"/>
     <use x="639.521484" xlink:href="#DejaVuSans-110"/>
     <use x="702.900391" xlink:href="#DejaVuSans-116"/>
     <use x="742.109375" xlink:href="#DejaVuSans-111"/>
     <use x="803.291016" xlink:href="#DejaVuSans-32"/>
     <use x="835.078125" xlink:href="#DejaVuSans-100"/>
     <use x="898.554688" xlink:href="#DejaVuSans-101"/>
     <use x="960.078125" xlink:href="#DejaVuSans-108"/>
     <use x="987.861328" xlink:href="#DejaVuSans-32"/>
     <use x="1019.648438" xlink:href="#DejaVuSans-99"/>
     <use x="1074.628906" xlink:href="#DejaVuSans-108"/>
     <use x="1102.412109" xlink:href="#DejaVuSans-97"/>
     <use x="1163.691406" xlink:href="#DejaVuSans-115"/>
     <use x="1215.791016" xlink:href="#DejaVuSans-105"/>
     <use x="1243.574219" xlink:href="#DejaVuSans-102"/>
     <use x="1278.779297" xlink:href="#DejaVuSans-105"/>
     <use x="1306.5625" xlink:href="#DejaVuSans-99"/>
     <use x="1361.542969" xlink:href="#DejaVuSans-97"/>
     <use x="1422.822266" xlink:href="#DejaVuSans-100"/>
     <use x="1486.298828" xlink:href="#DejaVuSans-111"/>
     <use x="1547.480469" xlink:href="#DejaVuSans-114"/>
    </g>
   </g>
  </g>
 </g>
 <defs>
  <clipPath id="pe18518237a">
   <rect height="217.44" width="334.8" x="46.965625" y="22.318125"/>
  </clipPath>
 </defs>
</svg>
